<svg xmlns="http://www.w3.org/2000/svg" xmlns:xlink="http://www.w3.org/1999/xlink" width="360" zoomAndPan="magnify" viewBox="0 0 270 127.500001" height="170" preserveAspectRatio="xMidYMid meet" version="1.0"><defs><g/><clipPath id="ac674b4ce2"><path d="M 7 27 L 79 27 L 79 100 L 7 100 Z M 7 27 " clip-rule="nonzero"/></clipPath><clipPath id="48162a1213"><path d="M 42.988281 27.507812 C 41.183594 27.507812 39.71875 28.972656 39.71875 30.777344 C 39.71875 32.582031 41.183594 34.046875 42.988281 34.046875 C 59.234375 34.046875 72.402344 47.214844 72.402344 63.460938 C 72.402344 79.707031 59.234375 92.878906 42.988281 92.878906 C 41.183594 92.878906 39.71875 94.339844 39.71875 96.144531 C 39.71875 97.949219 41.183594 99.414062 42.988281 99.414062 C 62.84375 99.414062 78.941406 83.316406 78.941406 63.460938 C 78.941406 43.605469 62.84375 27.507812 42.988281 27.507812 Z M 35.632812 34.972656 C 37.378906 34.523438 38.433594 32.738281 37.984375 30.992188 C 37.53125 29.242188 35.75 28.191406 34.003906 28.640625 C 32.070312 29.136719 30.203125 29.792969 28.410156 30.585938 C 26.761719 31.320312 26.015625 33.25 26.75 34.902344 C 27.480469 36.550781 29.414062 37.292969 31.0625 36.5625 C 32.527344 35.910156 34.054688 35.378906 35.632812 34.972656 Z M 23.003906 41.875 C 24.328125 40.648438 24.40625 38.582031 23.179688 37.257812 C 21.953125 35.933594 19.886719 35.851562 18.5625 37.078125 C 15.671875 39.757812 13.222656 42.902344 11.335938 46.398438 C 10.476562 47.988281 11.070312 49.96875 12.65625 50.828125 C 14.246094 51.683594 16.230469 51.09375 17.085938 49.503906 C 18.632812 46.644531 20.636719 44.070312 23.003906 41.875 Z M 13.964844 58.628906 C 14.261719 56.847656 13.054688 55.167969 11.273438 54.875 C 9.492188 54.578125 7.8125 55.785156 7.515625 57.566406 C 7.199219 59.484375 7.035156 61.457031 7.035156 63.460938 C 7.035156 65.464844 7.199219 67.4375 7.515625 69.355469 C 7.8125 71.136719 9.492188 72.34375 11.273438 72.050781 C 13.054688 71.753906 14.261719 70.074219 13.964844 68.292969 C 13.707031 66.722656 13.574219 65.109375 13.574219 63.460938 C 13.574219 61.8125 13.707031 60.199219 13.964844 58.628906 Z M 17.085938 77.417969 C 16.230469 75.828125 14.246094 75.238281 12.65625 76.09375 C 11.070312 76.953125 10.476562 78.933594 11.335938 80.523438 C 13.222656 84.019531 15.671875 87.164062 18.5625 89.84375 C 19.886719 91.070312 21.953125 90.988281 23.179688 89.664062 C 24.40625 88.339844 24.328125 86.273438 23.003906 85.046875 C 20.636719 82.851562 18.632812 80.277344 17.085938 77.417969 Z M 31.0625 90.359375 C 29.414062 89.628906 27.480469 90.371094 26.75 92.019531 C 26.015625 93.671875 26.761719 95.601562 28.410156 96.335938 C 30.203125 97.128906 32.070312 97.785156 34.003906 98.28125 C 35.75 98.730469 37.53125 97.679688 37.984375 95.929688 C 38.433594 94.183594 37.378906 92.402344 35.632812 91.949219 C 34.054688 91.542969 32.527344 91.011719 31.0625 90.359375 Z M 31.0625 90.359375 " clip-rule="evenodd"/></clipPath><linearGradient x1="12" gradientTransform="matrix(3.268433, 0, 0, 3.268433, 3.76719, 24.240226)" y1="1.000001" x2="12" gradientUnits="userSpaceOnUse" y2="23" id="a1583161d3"><stop stop-opacity="1" stop-color="rgb(67.098999%, 34.498596%, 99.998474%)" offset="0"/><stop stop-opacity="1" stop-color="rgb(66.999817%, 34.437561%, 99.832153%)" offset="0.0078125"/><stop stop-opacity="1" stop-color="rgb(66.799927%, 34.315491%, 99.501038%)" offset="0.015625"/><stop stop-opacity="1" stop-color="rgb(66.600037%, 34.191895%, 99.169922%)" offset="0.0234375"/><stop stop-opacity="1" stop-color="rgb(66.401672%, 34.069824%, 98.838806%)" offset="0.03125"/><stop stop-opacity="1" stop-color="rgb(66.201782%, 33.946228%, 98.50769%)" offset="0.0390625"/><stop stop-opacity="1" stop-color="rgb(66.003418%, 33.824158%, 98.176575%)" offset="0.046875"/><stop stop-opacity="1" stop-color="rgb(65.803528%, 33.702087%, 97.845459%)" offset="0.0546875"/><stop stop-opacity="1" stop-color="rgb(65.605164%, 33.578491%, 97.514343%)" offset="0.0625"/><stop stop-opacity="1" stop-color="rgb(65.405273%, 33.456421%, 97.183228%)" offset="0.0703125"/><stop stop-opacity="1" stop-color="rgb(65.206909%, 33.334351%, 96.852112%)" offset="0.078125"/><stop stop-opacity="1" stop-color="rgb(65.007019%, 33.210754%, 96.520996%)" offset="0.0859375"/><stop stop-opacity="1" stop-color="rgb(64.807129%, 33.088684%, 96.18988%)" offset="0.09375"/><stop stop-opacity="1" stop-color="rgb(64.608765%, 32.965088%, 95.857239%)" offset="0.101562"/><stop stop-opacity="1" stop-color="rgb(64.408875%, 32.843018%, 95.526123%)" offset="0.109375"/><stop stop-opacity="1" stop-color="rgb(64.21051%, 32.720947%, 95.195007%)" offset="0.117187"/><stop stop-opacity="1" stop-color="rgb(64.01062%, 32.597351%, 94.863892%)" offset="0.125"/><stop stop-opacity="1" stop-color="rgb(63.812256%, 32.475281%, 94.532776%)" offset="0.132812"/><stop stop-opacity="1" stop-color="rgb(63.612366%, 32.35321%, 94.20166%)" offset="0.140625"/><stop stop-opacity="1" stop-color="rgb(63.414001%, 32.229614%, 93.870544%)" offset="0.148437"/><stop stop-opacity="1" stop-color="rgb(63.214111%, 32.107544%, 93.539429%)" offset="0.15625"/><stop stop-opacity="1" stop-color="rgb(63.014221%, 31.983948%, 93.208313%)" offset="0.164062"/><stop stop-opacity="1" stop-color="rgb(62.815857%, 31.861877%, 92.877197%)" offset="0.171875"/><stop stop-opacity="1" stop-color="rgb(62.615967%, 31.739807%, 92.546082%)" offset="0.179687"/><stop stop-opacity="1" stop-color="rgb(62.417603%, 31.616211%, 92.21344%)" offset="0.1875"/><stop stop-opacity="1" stop-color="rgb(62.217712%, 31.494141%, 91.882324%)" offset="0.195312"/><stop stop-opacity="1" stop-color="rgb(62.019348%, 31.370544%, 91.551208%)" offset="0.203125"/><stop stop-opacity="1" stop-color="rgb(61.819458%, 31.248474%, 91.220093%)" offset="0.210937"/><stop stop-opacity="1" stop-color="rgb(61.619568%, 31.126404%, 90.888977%)" offset="0.21875"/><stop stop-opacity="1" stop-color="rgb(61.421204%, 31.002808%, 90.557861%)" offset="0.226562"/><stop stop-opacity="1" stop-color="rgb(61.221313%, 30.880737%, 90.226746%)" offset="0.234375"/><stop stop-opacity="1" stop-color="rgb(61.022949%, 30.758667%, 89.89563%)" offset="0.242187"/><stop stop-opacity="1" stop-color="rgb(60.823059%, 30.635071%, 89.564514%)" offset="0.25"/><stop stop-opacity="1" stop-color="rgb(60.624695%, 30.513%, 89.233398%)" offset="0.257812"/><stop stop-opacity="1" stop-color="rgb(60.424805%, 30.389404%, 88.902283%)" offset="0.265625"/><stop stop-opacity="1" stop-color="rgb(60.22644%, 30.267334%, 88.571167%)" offset="0.273437"/><stop stop-opacity="1" stop-color="rgb(60.02655%, 30.145264%, 88.238525%)" offset="0.28125"/><stop stop-opacity="1" stop-color="rgb(59.82666%, 30.021667%, 87.90741%)" offset="0.289062"/><stop stop-opacity="1" stop-color="rgb(59.628296%, 29.899597%, 87.576294%)" offset="0.296875"/><stop stop-opacity="1" stop-color="rgb(59.428406%, 29.776001%, 87.245178%)" offset="0.304687"/><stop stop-opacity="1" stop-color="rgb(59.230042%, 29.653931%, 86.914062%)" offset="0.3125"/><stop stop-opacity="1" stop-color="rgb(59.030151%, 29.53186%, 86.582947%)" offset="0.320312"/><stop stop-opacity="1" stop-color="rgb(58.831787%, 29.408264%, 86.251831%)" offset="0.328125"/><stop stop-opacity="1" stop-color="rgb(58.631897%, 29.286194%, 85.920715%)" offset="0.335937"/><stop stop-opacity="1" stop-color="rgb(58.433533%, 29.164124%, 85.5896%)" offset="0.34375"/><stop stop-opacity="1" stop-color="rgb(58.233643%, 29.040527%, 85.258484%)" offset="0.351562"/><stop stop-opacity="1" stop-color="rgb(58.033752%, 28.918457%, 84.927368%)" offset="0.359375"/><stop stop-opacity="1" stop-color="rgb(57.835388%, 28.794861%, 84.594727%)" offset="0.367187"/><stop stop-opacity="1" stop-color="rgb(57.635498%, 28.672791%, 84.263611%)" offset="0.375"/><stop stop-opacity="1" stop-color="rgb(57.437134%, 28.55072%, 83.932495%)" offset="0.382812"/><stop stop-opacity="1" stop-color="rgb(57.237244%, 28.427124%, 83.601379%)" offset="0.390625"/><stop stop-opacity="1" stop-color="rgb(57.038879%, 28.305054%, 83.270264%)" offset="0.398438"/><stop stop-opacity="1" stop-color="rgb(56.838989%, 28.181458%, 82.939148%)" offset="0.40625"/><stop stop-opacity="1" stop-color="rgb(56.639099%, 28.059387%, 82.608032%)" offset="0.414062"/><stop stop-opacity="1" stop-color="rgb(56.440735%, 27.937317%, 82.276917%)" offset="0.421875"/><stop stop-opacity="1" stop-color="rgb(56.240845%, 27.813721%, 81.945801%)" offset="0.429688"/><stop stop-opacity="1" stop-color="rgb(56.04248%, 27.69165%, 81.614685%)" offset="0.4375"/><stop stop-opacity="1" stop-color="rgb(55.84259%, 27.56958%, 81.283569%)" offset="0.445312"/><stop stop-opacity="1" stop-color="rgb(55.644226%, 27.445984%, 80.950928%)" offset="0.453125"/><stop stop-opacity="1" stop-color="rgb(55.444336%, 27.323914%, 80.619812%)" offset="0.460938"/><stop stop-opacity="1" stop-color="rgb(55.245972%, 27.200317%, 80.288696%)" offset="0.46875"/><stop stop-opacity="1" stop-color="rgb(55.046082%, 27.078247%, 79.957581%)" offset="0.476562"/><stop stop-opacity="1" stop-color="rgb(54.846191%, 26.956177%, 79.626465%)" offset="0.484375"/><stop stop-opacity="1" stop-color="rgb(54.647827%, 26.832581%, 79.295349%)" offset="0.492188"/><stop stop-opacity="1" stop-color="rgb(54.447937%, 26.71051%, 78.964233%)" offset="0.5"/><stop stop-opacity="1" stop-color="rgb(54.249573%, 26.586914%, 78.633118%)" offset="0.507812"/><stop stop-opacity="1" stop-color="rgb(54.049683%, 26.464844%, 78.302002%)" offset="0.515625"/><stop stop-opacity="1" stop-color="rgb(53.851318%, 26.342773%, 77.970886%)" offset="0.523437"/><stop stop-opacity="1" stop-color="rgb(53.651428%, 26.219177%, 77.639771%)" offset="0.53125"/><stop stop-opacity="1" stop-color="rgb(53.453064%, 26.097107%, 77.308655%)" offset="0.539062"/><stop stop-opacity="1" stop-color="rgb(53.253174%, 25.975037%, 76.976013%)" offset="0.546875"/><stop stop-opacity="1" stop-color="rgb(53.053284%, 25.85144%, 76.644897%)" offset="0.554687"/><stop stop-opacity="1" stop-color="rgb(52.854919%, 25.72937%, 76.313782%)" offset="0.5625"/><stop stop-opacity="1" stop-color="rgb(52.655029%, 25.605774%, 75.982666%)" offset="0.570312"/><stop stop-opacity="1" stop-color="rgb(52.456665%, 25.483704%, 75.65155%)" offset="0.578125"/><stop stop-opacity="1" stop-color="rgb(52.256775%, 25.361633%, 75.320435%)" offset="0.585937"/><stop stop-opacity="1" stop-color="rgb(52.058411%, 25.238037%, 74.989319%)" offset="0.59375"/><stop stop-opacity="1" stop-color="rgb(51.858521%, 25.115967%, 74.658203%)" offset="0.601562"/><stop stop-opacity="1" stop-color="rgb(51.65863%, 24.992371%, 74.327087%)" offset="0.609375"/><stop stop-opacity="1" stop-color="rgb(51.460266%, 24.8703%, 73.995972%)" offset="0.617187"/><stop stop-opacity="1" stop-color="rgb(51.260376%, 24.74823%, 73.664856%)" offset="0.625"/><stop stop-opacity="1" stop-color="rgb(51.062012%, 24.624634%, 73.332214%)" offset="0.632812"/><stop stop-opacity="1" stop-color="rgb(50.862122%, 24.502563%, 73.001099%)" offset="0.640625"/><stop stop-opacity="1" stop-color="rgb(50.663757%, 24.380493%, 72.669983%)" offset="0.648437"/><stop stop-opacity="1" stop-color="rgb(50.463867%, 24.256897%, 72.338867%)" offset="0.65625"/><stop stop-opacity="1" stop-color="rgb(50.265503%, 24.134827%, 72.007751%)" offset="0.664062"/><stop stop-opacity="1" stop-color="rgb(50.065613%, 24.01123%, 71.676636%)" offset="0.671875"/><stop stop-opacity="1" stop-color="rgb(49.865723%, 23.88916%, 71.34552%)" offset="0.679687"/><stop stop-opacity="1" stop-color="rgb(49.667358%, 23.76709%, 71.014404%)" offset="0.6875"/><stop stop-opacity="1" stop-color="rgb(49.467468%, 23.643494%, 70.683289%)" offset="0.695312"/><stop stop-opacity="1" stop-color="rgb(49.269104%, 23.521423%, 70.352173%)" offset="0.703125"/><stop stop-opacity="1" stop-color="rgb(49.069214%, 23.397827%, 70.021057%)" offset="0.710937"/><stop stop-opacity="1" stop-color="rgb(48.87085%, 23.275757%, 69.688416%)" offset="0.71875"/><stop stop-opacity="1" stop-color="rgb(48.670959%, 23.153687%, 69.3573%)" offset="0.726562"/><stop stop-opacity="1" stop-color="rgb(48.472595%, 23.03009%, 69.026184%)" offset="0.734375"/><stop stop-opacity="1" stop-color="rgb(48.272705%, 22.90802%, 68.695068%)" offset="0.742187"/><stop stop-opacity="1" stop-color="rgb(48.072815%, 22.78595%, 68.363953%)" offset="0.75"/><stop stop-opacity="1" stop-color="rgb(47.874451%, 22.662354%, 68.032837%)" offset="0.757812"/><stop stop-opacity="1" stop-color="rgb(47.674561%, 22.540283%, 67.701721%)" offset="0.765625"/><stop stop-opacity="1" stop-color="rgb(47.476196%, 22.416687%, 67.370605%)" offset="0.773438"/><stop stop-opacity="1" stop-color="rgb(47.276306%, 22.294617%, 67.03949%)" offset="0.78125"/><stop stop-opacity="1" stop-color="rgb(47.077942%, 22.172546%, 66.708374%)" offset="0.789062"/><stop stop-opacity="1" stop-color="rgb(46.878052%, 22.04895%, 66.377258%)" offset="0.796875"/><stop stop-opacity="1" stop-color="rgb(46.678162%, 21.92688%, 66.046143%)" offset="0.804688"/><stop stop-opacity="1" stop-color="rgb(46.479797%, 21.803284%, 65.713501%)" offset="0.8125"/><stop stop-opacity="1" stop-color="rgb(46.279907%, 21.681213%, 65.382385%)" offset="0.820312"/><stop stop-opacity="1" stop-color="rgb(46.081543%, 21.559143%, 65.05127%)" offset="0.828125"/><stop stop-opacity="1" stop-color="rgb(45.881653%, 21.435547%, 64.720154%)" offset="0.835938"/><stop stop-opacity="1" stop-color="rgb(45.683289%, 21.313477%, 64.389038%)" offset="0.84375"/><stop stop-opacity="1" stop-color="rgb(45.483398%, 21.191406%, 64.057922%)" offset="0.851562"/><stop stop-opacity="1" stop-color="rgb(45.285034%, 21.06781%, 63.726807%)" offset="0.859375"/><stop stop-opacity="1" stop-color="rgb(45.085144%, 20.94574%, 63.395691%)" offset="0.867188"/><stop stop-opacity="1" stop-color="rgb(44.885254%, 20.822144%, 63.064575%)" offset="0.875"/><stop stop-opacity="1" stop-color="rgb(44.68689%, 20.700073%, 62.733459%)" offset="0.882812"/><stop stop-opacity="1" stop-color="rgb(44.487%, 20.578003%, 62.402344%)" offset="0.890625"/><stop stop-opacity="1" stop-color="rgb(44.288635%, 20.454407%, 62.069702%)" offset="0.898438"/><stop stop-opacity="1" stop-color="rgb(44.088745%, 20.332336%, 61.738586%)" offset="0.90625"/><stop stop-opacity="1" stop-color="rgb(43.890381%, 20.20874%, 61.407471%)" offset="0.914062"/><stop stop-opacity="1" stop-color="rgb(43.690491%, 20.08667%, 61.076355%)" offset="0.921875"/><stop stop-opacity="1" stop-color="rgb(43.492126%, 19.9646%, 60.745239%)" offset="0.929688"/><stop stop-opacity="1" stop-color="rgb(43.292236%, 19.841003%, 60.414124%)" offset="0.9375"/><stop stop-opacity="1" stop-color="rgb(43.092346%, 19.718933%, 60.083008%)" offset="0.945312"/><stop stop-opacity="1" stop-color="rgb(42.893982%, 19.596863%, 59.751892%)" offset="0.953125"/><stop stop-opacity="1" stop-color="rgb(42.694092%, 19.473267%, 59.420776%)" offset="0.960938"/><stop stop-opacity="1" stop-color="rgb(42.495728%, 19.351196%, 59.089661%)" offset="0.96875"/><stop stop-opacity="1" stop-color="rgb(42.295837%, 19.2276%, 58.758545%)" offset="0.976562"/><stop stop-opacity="1" stop-color="rgb(42.097473%, 19.10553%, 58.425903%)" offset="0.984375"/><stop stop-opacity="1" stop-color="rgb(41.897583%, 18.983459%, 58.094788%)" offset="0.992188"/><stop stop-opacity="1" stop-color="rgb(41.697693%, 18.859863%, 57.763672%)" offset="1"/></linearGradient><clipPath id="e7c67e4d65"><path d="M 17.332031 48 L 68.878906 48 L 68.878906 79 L 17.332031 79 Z M 17.332031 48 " clip-rule="nonzero"/></clipPath><clipPath id="bb44462051"><path d="M 23 44.070312 L 63 44.070312 L 63 82.917969 L 23 82.917969 Z M 23 44.070312 " clip-rule="nonzero"/></clipPath></defs><g clip-path="url(#ac674b4ce2)"><g clip-path="url(#48162a1213)"><path fill="url(#a1583161d3)" d="M 7.035156 27.507812 L 7.035156 99.414062 L 78.941406 99.414062 L 78.941406 27.507812 Z M 7.035156 27.507812 " fill-rule="nonzero"/></g></g><g clip-path="url(#e7c67e4d65)"><path fill="#c13584" d="M 19.390625 63.503906 C 19.390625 62.570312 19.792969 61.699219 20.523438 61.042969 C 24.90625 57.109375 33.660156 50.511719 43.023438 50.511719 C 45.847656 50.511719 48.613281 51.113281 51.222656 52.058594 L 52.8125 50.464844 C 49.441406 49.132812 46.164062 48.460938 43.023438 48.460938 C 38.601562 48.460938 33.898438 49.796875 29.054688 52.429688 C 24.863281 54.707031 21.359375 57.542969 19.15625 59.515625 C 17.988281 60.566406 17.34375 61.980469 17.34375 63.503906 C 17.34375 65.023438 17.988281 66.4375 19.15625 67.488281 C 21.324219 69.429688 24.75 72.203125 28.847656 74.460938 L 30.363281 72.949219 C 26.253906 70.765625 22.800781 68.003906 20.523438 65.960938 C 19.792969 65.304688 19.390625 64.433594 19.390625 63.503906 Z M 68.238281 61.332031 C 67.933594 60.65625 67.476562 60.042969 66.894531 59.515625 C 64.726562 57.574219 61.300781 54.800781 57.203125 52.542969 L 55.6875 54.058594 C 55.839844 54.136719 55.992188 54.21875 56.144531 54.300781 C 60.050781 56.445312 63.335938 59.078125 65.527344 61.042969 C 66.257812 61.699219 66.660156 62.570312 66.660156 63.503906 C 66.660156 64.433594 66.257812 65.304688 65.527344 65.960938 C 61.144531 69.894531 52.390625 76.492188 43.023438 76.492188 C 40.203125 76.492188 37.4375 75.894531 34.828125 74.949219 L 33.238281 76.539062 C 36.609375 77.871094 39.886719 78.542969 43.023438 78.542969 C 47.449219 78.542969 52.148438 77.207031 56.996094 74.574219 C 61.1875 72.296875 64.691406 69.464844 66.894531 67.488281 C 68.0625 66.4375 68.707031 65.023438 68.707031 63.503906 C 68.707031 62.742188 68.546875 62.007812 68.238281 61.332031 " fill-opacity="1" fill-rule="nonzero"/></g><path fill="#c13584" d="M 47.007812 56.277344 L 35.8125 67.492188 C 35.15625 66.308594 34.785156 64.949219 34.785156 63.503906 C 34.785156 58.945312 38.476562 55.253906 43.023438 55.253906 C 44.46875 55.253906 45.828125 55.625 47.007812 56.277344 " fill-opacity="1" fill-rule="nonzero"/><path fill="#c13584" d="M 51.265625 63.503906 C 51.265625 68.058594 47.574219 71.753906 43.023438 71.753906 C 41.582031 71.753906 40.222656 71.378906 39.042969 70.726562 L 50.238281 59.515625 C 50.890625 60.695312 51.265625 62.054688 51.265625 63.503906 " fill-opacity="1" fill-rule="nonzero"/><g clip-path="url(#bb44462051)"><path fill="#c13584" d="M 24.105469 82.449219 C 23.621094 81.964844 23.621094 81.175781 24.105469 80.691406 L 60.1875 44.558594 C 60.671875 44.070312 61.460938 44.070312 61.945312 44.558594 C 62.429688 45.042969 62.429688 45.828125 61.945312 46.316406 L 25.859375 82.449219 C 25.375 82.933594 24.589844 82.933594 24.105469 82.449219 " fill-opacity="1" fill-rule="nonzero"/></g><g fill="#e1306c" fill-opacity="1"><g transform="translate(82.288692, 79.189455)"><g><path d="M 1.359375 -31.125 L 1.359375 -35.984375 L 8.328125 -35.984375 L 8.328125 -31.125 Z M 1.359375 0 L 1.359375 -29.171875 L 8.328125 -29.171875 L 8.328125 0 Z M 1.359375 0 "/></g></g></g><g fill="#e1306c" fill-opacity="1"><g transform="translate(91.969759, 79.189455)"><g><path d="M 1.390625 -29.171875 L 8.375 -29.171875 L 8.375 -25.453125 C 8.664062 -26.648438 9.164062 -27.617188 9.875 -28.359375 C 10.59375 -29.109375 11.550781 -29.484375 12.75 -29.484375 C 14.71875 -29.484375 16.171875 -28.878906 17.109375 -27.671875 C 18.054688 -26.460938 18.53125 -24.742188 18.53125 -22.515625 L 18.53125 0 L 11.671875 0 L 11.671875 -21.796875 C 11.671875 -22.429688 11.546875 -22.972656 11.296875 -23.421875 C 11.046875 -23.878906 10.65625 -24.109375 10.125 -24.109375 C 9.40625 -24.109375 8.929688 -23.78125 8.703125 -23.125 C 8.484375 -22.476562 8.375 -21.609375 8.375 -20.515625 L 8.375 0 L 1.390625 0 Z M 1.390625 -29.171875 "/></g></g></g><g fill="#e1306c" fill-opacity="1"><g transform="translate(111.849813, 79.189455)"><g><path d="M 9.40625 0.3125 C 3.632812 0.3125 0.75 -2.609375 0.75 -8.453125 L 0.796875 -10.765625 L 7.765625 -10.765625 L 7.8125 -7.328125 C 7.8125 -6.640625 7.941406 -6.113281 8.203125 -5.75 C 8.472656 -5.394531 8.910156 -5.21875 9.515625 -5.21875 C 10.453125 -5.21875 10.921875 -5.972656 10.921875 -7.484375 C 10.921875 -8.609375 10.703125 -9.488281 10.265625 -10.125 C 9.828125 -10.757812 9.128906 -11.4375 8.171875 -12.15625 L 4.46875 -15.015625 C 3.1875 -16.003906 2.265625 -17.019531 1.703125 -18.0625 C 1.148438 -19.113281 0.875 -20.597656 0.875 -22.515625 C 0.875 -24.003906 1.265625 -25.269531 2.046875 -26.3125 C 2.835938 -27.363281 3.878906 -28.15625 5.171875 -28.6875 C 6.472656 -29.21875 7.921875 -29.484375 9.515625 -29.484375 C 15.179688 -29.484375 18.015625 -26.664062 18.015625 -21.03125 L 18.015625 -20.484375 L 10.796875 -20.484375 L 10.796875 -21.59375 C 10.796875 -22.28125 10.679688 -22.867188 10.453125 -23.359375 C 10.234375 -23.859375 9.859375 -24.109375 9.328125 -24.109375 C 8.847656 -24.109375 8.476562 -23.96875 8.21875 -23.6875 C 7.96875 -23.40625 7.84375 -23.023438 7.84375 -22.546875 C 7.84375 -21.484375 8.253906 -20.660156 9.078125 -20.078125 L 13.390625 -16.9375 C 14.929688 -15.789062 16.113281 -14.546875 16.9375 -13.203125 C 17.757812 -11.867188 18.171875 -10.175781 18.171875 -8.125 C 18.171875 -5.414062 17.398438 -3.332031 15.859375 -1.875 C 14.316406 -0.414062 12.164062 0.3125 9.40625 0.3125 Z M 9.40625 0.3125 "/></g></g></g><g fill="#e1306c" fill-opacity="1"><g transform="translate(130.773709, 79.189455)"><g><path d="M 6.6875 0.3125 C 4.4375 0.3125 2.890625 -0.4375 2.046875 -1.9375 C 1.210938 -3.4375 0.796875 -5.582031 0.796875 -8.375 C 0.796875 -10.65625 1.09375 -12.40625 1.6875 -13.625 C 2.289062 -14.84375 3.125 -15.738281 4.1875 -16.3125 C 5.25 -16.882812 6.867188 -17.515625 9.046875 -18.203125 L 10.953125 -18.84375 L 10.953125 -21.828125 C 10.953125 -22.597656 10.800781 -23.1875 10.5 -23.59375 C 10.195312 -24.007812 9.832031 -24.21875 9.40625 -24.21875 C 9.03125 -24.21875 8.703125 -24.046875 8.421875 -23.703125 C 8.148438 -23.359375 8.015625 -22.894531 8.015625 -22.3125 L 8.015625 -20.5625 L 1.234375 -20.5625 L 1.234375 -21.515625 C 1.234375 -24.378906 1.90625 -26.421875 3.25 -27.640625 C 4.59375 -28.867188 6.773438 -29.484375 9.796875 -29.484375 C 12.210938 -29.484375 14.175781 -28.851562 15.6875 -27.59375 C 17.207031 -26.332031 17.96875 -24.546875 17.96875 -22.234375 L 17.96875 0 L 11.03125 0 L 11.03125 -3.46875 C 10.6875 -2.269531 10.132812 -1.335938 9.375 -0.671875 C 8.625 -0.015625 7.726562 0.3125 6.6875 0.3125 Z M 9.4375 -5.09375 C 9.96875 -5.09375 10.347656 -5.3125 10.578125 -5.75 C 10.804688 -6.195312 10.921875 -6.738281 10.921875 -7.375 L 10.921875 -15.5 C 9.878906 -15.101562 9.113281 -14.597656 8.625 -13.984375 C 8.132812 -13.367188 7.890625 -12.519531 7.890625 -11.4375 L 7.890625 -7.6875 C 7.890625 -5.957031 8.40625 -5.09375 9.4375 -5.09375 Z M 9.4375 -5.09375 "/></g></g></g><g fill="#e1306c" fill-opacity="1"><g transform="translate(150.016331, 79.189455)"><g><path d="M 1.390625 -29.171875 L 8.375 -29.171875 L 8.375 -25.453125 C 8.664062 -26.648438 9.164062 -27.617188 9.875 -28.359375 C 10.59375 -29.109375 11.550781 -29.484375 12.75 -29.484375 C 14.71875 -29.484375 16.171875 -28.878906 17.109375 -27.671875 C 18.054688 -26.460938 18.53125 -24.742188 18.53125 -22.515625 L 18.53125 0 L 11.671875 0 L 11.671875 -21.796875 C 11.671875 -22.429688 11.546875 -22.972656 11.296875 -23.421875 C 11.046875 -23.878906 10.65625 -24.109375 10.125 -24.109375 C 9.40625 -24.109375 8.929688 -23.78125 8.703125 -23.125 C 8.484375 -22.476562 8.375 -21.609375 8.375 -20.515625 L 8.375 0 L 1.390625 0 Z M 1.390625 -29.171875 "/></g></g></g><g fill="#e1306c" fill-opacity="1"><g transform="translate(169.896385, 79.189455)"><g><path d="M 9.875 0.3125 C 4.0625 0.3125 1.15625 -2.695312 1.15625 -8.71875 L 1.15625 -20.4375 C 1.15625 -23.195312 1.929688 -25.394531 3.484375 -27.03125 C 5.035156 -28.664062 7.164062 -29.484375 9.875 -29.484375 C 12.59375 -29.484375 14.726562 -28.664062 16.28125 -27.03125 C 17.832031 -25.394531 18.609375 -23.195312 18.609375 -20.4375 L 18.609375 -8.71875 C 18.609375 -2.695312 15.695312 0.3125 9.875 0.3125 Z M 9.875 -5.0625 C 10.4375 -5.0625 10.847656 -5.257812 11.109375 -5.65625 C 11.378906 -6.050781 11.515625 -6.597656 11.515625 -7.296875 L 11.515625 -21.5625 C 11.515625 -23.257812 10.96875 -24.109375 9.875 -24.109375 C 8.789062 -24.109375 8.25 -23.257812 8.25 -21.5625 L 8.25 -7.296875 C 8.25 -6.597656 8.378906 -6.050781 8.640625 -5.65625 C 8.910156 -5.257812 9.320312 -5.0625 9.875 -5.0625 Z M 9.875 -5.0625 "/></g></g></g><g fill="#e1306c" fill-opacity="1"><g transform="translate(189.696757, 79.189455)"><g><path d="M 1.390625 -29.171875 L 8.375 -29.171875 L 8.375 -25.453125 C 8.664062 -26.648438 9.164062 -27.617188 9.875 -28.359375 C 10.59375 -29.109375 11.550781 -29.484375 12.75 -29.484375 C 14.71875 -29.484375 16.171875 -28.878906 17.109375 -27.671875 C 18.054688 -26.460938 18.53125 -24.742188 18.53125 -22.515625 L 18.53125 0 L 11.671875 0 L 11.671875 -21.796875 C 11.671875 -22.429688 11.546875 -22.972656 11.296875 -23.421875 C 11.046875 -23.878906 10.65625 -24.109375 10.125 -24.109375 C 9.40625 -24.109375 8.929688 -23.78125 8.703125 -23.125 C 8.484375 -22.476562 8.375 -21.609375 8.375 -20.515625 L 8.375 0 L 1.390625 0 Z M 1.390625 -29.171875 "/></g></g></g><g fill="#e1306c" fill-opacity="1"><g transform="translate(209.57681, 79.189455)"><g><path d="M 0.84375 0.4375 L 4.1875 0.4375 C 4.664062 0.4375 4.90625 0.238281 4.90625 -0.15625 C 4.90625 -0.34375 4.890625 -0.488281 4.859375 -0.59375 L 0.3125 -29.171875 L 6.96875 -29.171875 L 8.28125 -14.9375 L 8.921875 -7.6875 L 9.6875 -14.9375 L 11.234375 -29.171875 L 17.9375 -29.171875 L 12.515625 1.515625 C 12.328125 2.660156 11.945312 3.503906 11.375 4.046875 C 10.800781 4.585938 9.90625 4.859375 8.6875 4.859375 L 0.84375 4.859375 Z M 0.84375 0.4375 "/></g></g></g><g fill="#e1306c" fill-opacity="1"><g transform="translate(227.942957, 79.189455)"><g><path d="M 1.078125 0 L 1.078125 -5.8125 L 8.046875 -5.8125 L 8.046875 0 Z M 1.078125 0 "/></g></g></g><g fill="#e1306c" fill-opacity="1"><g transform="translate(237.066275, 79.189455)"><g><path d="M 1.359375 -31.125 L 1.359375 -35.984375 L 8.328125 -35.984375 L 8.328125 -31.125 Z M 1.359375 0 L 1.359375 -29.171875 L 8.328125 -29.171875 L 8.328125 0 Z M 1.359375 0 "/></g></g></g><g fill="#e1306c" fill-opacity="1"><g transform="translate(246.747342, 79.189455)"><g><path d="M 9.875 0.3125 C 4.0625 0.3125 1.15625 -2.695312 1.15625 -8.71875 L 1.15625 -20.4375 C 1.15625 -23.195312 1.929688 -25.394531 3.484375 -27.03125 C 5.035156 -28.664062 7.164062 -29.484375 9.875 -29.484375 C 12.59375 -29.484375 14.726562 -28.664062 16.28125 -27.03125 C 17.832031 -25.394531 18.609375 -23.195312 18.609375 -20.4375 L 18.609375 -8.71875 C 18.609375 -2.695312 15.695312 0.3125 9.875 0.3125 Z M 9.875 -5.0625 C 10.4375 -5.0625 10.847656 -5.257812 11.109375 -5.65625 C 11.378906 -6.050781 11.515625 -6.597656 11.515625 -7.296875 L 11.515625 -21.5625 C 11.515625 -23.257812 10.96875 -24.109375 9.875 -24.109375 C 8.789062 -24.109375 8.25 -23.257812 8.25 -21.5625 L 8.25 -7.296875 C 8.25 -6.597656 8.378906 -6.050781 8.640625 -5.65625 C 8.910156 -5.257812 9.320312 -5.0625 9.875 -5.0625 Z M 9.875 -5.0625 "/></g></g></g><g fill="#e1306c" fill-opacity="1"><g transform="translate(266.558248, 79.189455)"><g/></g></g></svg>