<svg xmlns="http://www.w3.org/2000/svg" xmlns:xlink="http://www.w3.org/1999/xlink" width="360" height="170" preserveAspectRatio="xMidYMid meet" version="1.0" viewBox="0 0 270 127.5" zoomAndPan="magnify"><defs><clipPath id="ac674b4ce2"><path d="M 7 27 L 79 27 L 79 100 L 7 100 Z M 7 27" clip-rule="nonzero"/></clipPath><clipPath id="48162a1213"><path d="M 42.988281 27.507812 C 41.183594 27.507812 39.71875 28.972656 39.71875 30.777344 C 39.71875 32.582031 41.183594 34.046875 42.988281 34.046875 C 59.234375 34.046875 72.402344 47.214844 72.402344 63.460938 C 72.402344 79.707031 59.234375 92.878906 42.988281 92.878906 C 41.183594 92.878906 39.71875 94.339844 39.71875 96.144531 C 39.71875 97.949219 41.183594 99.414062 42.988281 99.414062 C 62.84375 99.414062 78.941406 83.316406 78.941406 63.460938 C 78.941406 43.605469 62.84375 27.507812 42.988281 27.507812 Z M 35.632812 34.972656 C 37.378906 34.523438 38.433594 32.738281 37.984375 30.992188 C 37.53125 29.242188 35.75 28.191406 34.003906 28.640625 C 32.070312 29.136719 30.203125 29.792969 28.410156 30.585938 C 26.761719 31.320312 26.015625 33.25 26.75 34.902344 C 27.480469 36.550781 29.414062 37.292969 31.0625 36.5625 C 32.527344 35.910156 34.054688 35.378906 35.632812 34.972656 Z M 23.003906 41.875 C 24.328125 40.648438 24.40625 38.582031 23.179688 37.257812 C 21.953125 35.933594 19.886719 35.851562 18.5625 37.078125 C 15.671875 39.757812 13.222656 42.902344 11.335938 46.398438 C 10.476562 47.988281 11.070312 49.96875 12.65625 50.828125 C 14.246094 51.683594 16.230469 51.09375 17.085938 49.503906 C 18.632812 46.644531 20.636719 44.070312 23.003906 41.875 Z M 13.964844 58.628906 C 14.261719 56.847656 13.054688 55.167969 11.273438 54.875 C 9.492188 54.578125 7.8125 55.785156 7.515625 57.566406 C 7.199219 59.484375 7.035156 61.457031 7.035156 63.460938 C 7.035156 65.464844 7.199219 67.4375 7.515625 69.355469 C 7.8125 71.136719 9.492188 72.34375 11.273438 72.050781 C 13.054688 71.753906 14.261719 70.074219 13.964844 68.292969 C 13.707031 66.722656 13.574219 65.109375 13.574219 63.460938 C 13.574219 61.8125 13.707031 60.199219 13.964844 58.628906 Z M 17.085938 77.417969 C 16.230469 75.828125 14.246094 75.238281 12.65625 76.09375 C 11.070312 76.953125 10.476562 78.933594 11.335938 80.523438 C 13.222656 84.019531 15.671875 87.164062 18.5625 89.84375 C 19.886719 91.070312 21.953125 90.988281 23.179688 89.664062 C 24.40625 88.339844 24.328125 86.273438 23.003906 85.046875 C 20.636719 82.851562 18.632812 80.277344 17.085938 77.417969 Z M 31.0625 90.359375 C 29.414062 89.628906 27.480469 90.371094 26.75 92.019531 C 26.015625 93.671875 26.761719 95.601562 28.410156 96.335938 C 30.203125 97.128906 32.070312 97.785156 34.003906 98.28125 C 35.75 98.730469 37.53125 97.679688 37.984375 95.929688 C 38.433594 94.183594 37.378906 92.402344 35.632812 91.949219 C 34.054688 91.542969 32.527344 91.011719 31.0625 90.359375 Z M 31.0625 90.359375" clip-rule="evenodd"/></clipPath><linearGradient id="a1583161d3" x1="12" x2="12" y1="1" y2="23" gradientTransform="matrix(3.268433, 0, 0, 3.268433, 3.76719, 24.240226)" gradientUnits="userSpaceOnUse"><stop offset="0" stop-color="#AB58FF" stop-opacity="1"/><stop offset=".008" stop-color="#AB58FF" stop-opacity="1"/><stop offset=".016" stop-color="#AA58FE" stop-opacity="1"/><stop offset=".023" stop-color="#AA57FD" stop-opacity="1"/><stop offset=".031" stop-color="#A957FC" stop-opacity="1"/><stop offset=".039" stop-color="#A957FB" stop-opacity="1"/><stop offset=".047" stop-color="#A856FA" stop-opacity="1"/><stop offset=".055" stop-color="#A856FA" stop-opacity="1"/><stop offset=".063" stop-color="#A756F9" stop-opacity="1"/><stop offset=".07" stop-color="#A755F8" stop-opacity="1"/><stop offset=".078" stop-color="#A655F7" stop-opacity="1"/><stop offset=".086" stop-color="#A655F6" stop-opacity="1"/><stop offset=".094" stop-color="#A554F5" stop-opacity="1"/><stop offset=".102" stop-color="#A554F4" stop-opacity="1"/><stop offset=".109" stop-color="#A454F4" stop-opacity="1"/><stop offset=".117" stop-color="#A453F3" stop-opacity="1"/><stop offset=".125" stop-color="#A353F2" stop-opacity="1"/><stop offset=".133" stop-color="#A353F1" stop-opacity="1"/><stop offset=".141" stop-color="#A253F0" stop-opacity="1"/><stop offset=".148" stop-color="#A252EF" stop-opacity="1"/><stop offset=".156" stop-color="#A152EF" stop-opacity="1"/><stop offset=".164" stop-color="#A152EE" stop-opacity="1"/><stop offset=".172" stop-color="#A051ED" stop-opacity="1"/><stop offset=".18" stop-color="#A051EC" stop-opacity="1"/><stop offset=".188" stop-color="#9F51EB" stop-opacity="1"/><stop offset=".195" stop-color="#9F50EA" stop-opacity="1"/><stop offset=".203" stop-color="#9E50E9" stop-opacity="1"/><stop offset=".211" stop-color="#9E50E9" stop-opacity="1"/><stop offset=".219" stop-color="#9D4FE8" stop-opacity="1"/><stop offset=".227" stop-color="#9D4FE7" stop-opacity="1"/><stop offset=".234" stop-color="#9C4FE6" stop-opacity="1"/><stop offset=".242" stop-color="#9C4EE5" stop-opacity="1"/><stop offset=".25" stop-color="#9B4EE4" stop-opacity="1"/><stop offset=".258" stop-color="#9B4EE4" stop-opacity="1"/><stop offset=".266" stop-color="#9A4DE3" stop-opacity="1"/><stop offset=".273" stop-color="#9A4DE2" stop-opacity="1"/><stop offset=".281" stop-color="#994DE1" stop-opacity="1"/><stop offset=".289" stop-color="#994DE0" stop-opacity="1"/><stop offset=".297" stop-color="#984CDF" stop-opacity="1"/><stop offset=".305" stop-color="#984CDE" stop-opacity="1"/><stop offset=".313" stop-color="#974CDE" stop-opacity="1"/><stop offset=".32" stop-color="#974BDD" stop-opacity="1"/><stop offset=".328" stop-color="#964BDC" stop-opacity="1"/><stop offset=".336" stop-color="#964BDB" stop-opacity="1"/><stop offset=".344" stop-color="#954ADA" stop-opacity="1"/><stop offset=".352" stop-color="#944AD9" stop-opacity="1"/><stop offset=".359" stop-color="#944AD9" stop-opacity="1"/><stop offset=".367" stop-color="#9349D8" stop-opacity="1"/><stop offset=".375" stop-color="#9349D7" stop-opacity="1"/><stop offset=".383" stop-color="#9249D6" stop-opacity="1"/><stop offset=".391" stop-color="#9248D5" stop-opacity="1"/><stop offset=".398" stop-color="#9148D4" stop-opacity="1"/><stop offset=".406" stop-color="#9148D3" stop-opacity="1"/><stop offset=".414" stop-color="#9048D3" stop-opacity="1"/><stop offset=".422" stop-color="#9047D2" stop-opacity="1"/><stop offset=".43" stop-color="#8F47D1" stop-opacity="1"/><stop offset=".438" stop-color="#8F47D0" stop-opacity="1"/><stop offset=".445" stop-color="#8E46CF" stop-opacity="1"/><stop offset=".453" stop-color="#8E46CE" stop-opacity="1"/><stop offset=".461" stop-color="#8D46CE" stop-opacity="1"/><stop offset=".469" stop-color="#8D45CD" stop-opacity="1"/><stop offset=".477" stop-color="#8C45CC" stop-opacity="1"/><stop offset=".484" stop-color="#8C45CB" stop-opacity="1"/><stop offset=".492" stop-color="#8B44CA" stop-opacity="1"/><stop offset=".5" stop-color="#8B44C9" stop-opacity="1"/><stop offset=".508" stop-color="#8A44C9" stop-opacity="1"/><stop offset=".516" stop-color="#8A43C8" stop-opacity="1"/><stop offset=".523" stop-color="#8943C7" stop-opacity="1"/><stop offset=".531" stop-color="#8943C6" stop-opacity="1"/><stop offset=".539" stop-color="#8843C5" stop-opacity="1"/><stop offset=".547" stop-color="#8842C4" stop-opacity="1"/><stop offset=".555" stop-color="#8742C3" stop-opacity="1"/><stop offset=".563" stop-color="#8742C3" stop-opacity="1"/><stop offset=".57" stop-color="#8641C2" stop-opacity="1"/><stop offset=".578" stop-color="#8641C1" stop-opacity="1"/><stop offset=".586" stop-color="#8541C0" stop-opacity="1"/><stop offset=".594" stop-color="#8540BF" stop-opacity="1"/><stop offset=".602" stop-color="#8440BE" stop-opacity="1"/><stop offset=".609" stop-color="#8440BE" stop-opacity="1"/><stop offset=".617" stop-color="#833FBD" stop-opacity="1"/><stop offset=".625" stop-color="#833FBC" stop-opacity="1"/><stop offset=".633" stop-color="#823FBB" stop-opacity="1"/><stop offset=".641" stop-color="#823EBA" stop-opacity="1"/><stop offset=".648" stop-color="#813EB9" stop-opacity="1"/><stop offset=".656" stop-color="#813EB8" stop-opacity="1"/><stop offset=".664" stop-color="#803EB8" stop-opacity="1"/><stop offset=".672" stop-color="#803DB7" stop-opacity="1"/><stop offset=".68" stop-color="#7F3DB6" stop-opacity="1"/><stop offset=".688" stop-color="#7F3DB5" stop-opacity="1"/><stop offset=".695" stop-color="#7E3CB4" stop-opacity="1"/><stop offset=".703" stop-color="#7E3CB3" stop-opacity="1"/><stop offset=".711" stop-color="#7D3CB3" stop-opacity="1"/><stop offset=".719" stop-color="#7D3BB2" stop-opacity="1"/><stop offset=".727" stop-color="#7C3BB1" stop-opacity="1"/><stop offset=".734" stop-color="#7C3BB0" stop-opacity="1"/><stop offset=".742" stop-color="#7B3AAF" stop-opacity="1"/><stop offset=".75" stop-color="#7B3AAE" stop-opacity="1"/><stop offset=".758" stop-color="#7A3AAD" stop-opacity="1"/><stop offset=".766" stop-color="#7A39AD" stop-opacity="1"/><stop offset=".773" stop-color="#7939AC" stop-opacity="1"/><stop offset=".781" stop-color="#7939AB" stop-opacity="1"/><stop offset=".789" stop-color="#7839AA" stop-opacity="1"/><stop offset=".797" stop-color="#7838A9" stop-opacity="1"/><stop offset=".805" stop-color="#7738A8" stop-opacity="1"/><stop offset=".813" stop-color="#7738A8" stop-opacity="1"/><stop offset=".82" stop-color="#7637A7" stop-opacity="1"/><stop offset=".828" stop-color="#7637A6" stop-opacity="1"/><stop offset=".836" stop-color="#7537A5" stop-opacity="1"/><stop offset=".844" stop-color="#7436A4" stop-opacity="1"/><stop offset=".852" stop-color="#7436A3" stop-opacity="1"/><stop offset=".859" stop-color="#7336A3" stop-opacity="1"/><stop offset=".867" stop-color="#7335A2" stop-opacity="1"/><stop offset=".875" stop-color="#7235A1" stop-opacity="1"/><stop offset=".883" stop-color="#7235A0" stop-opacity="1"/><stop offset=".891" stop-color="#71349F" stop-opacity="1"/><stop offset=".898" stop-color="#71349E" stop-opacity="1"/><stop offset=".906" stop-color="#70349D" stop-opacity="1"/><stop offset=".914" stop-color="#70349D" stop-opacity="1"/><stop offset=".922" stop-color="#6F339C" stop-opacity="1"/><stop offset=".93" stop-color="#6F339B" stop-opacity="1"/><stop offset=".938" stop-color="#6E339A" stop-opacity="1"/><stop offset=".945" stop-color="#6E3299" stop-opacity="1"/><stop offset=".953" stop-color="#6D3298" stop-opacity="1"/><stop offset=".961" stop-color="#6D3298" stop-opacity="1"/><stop offset=".969" stop-color="#6C3197" stop-opacity="1"/><stop offset=".977" stop-color="#6C3196" stop-opacity="1"/><stop offset=".984" stop-color="#6B3195" stop-opacity="1"/><stop offset=".992" stop-color="#6B3094" stop-opacity="1"/><stop offset="1" stop-color="#6A3093" stop-opacity="1"/></linearGradient><clipPath id="e7c67e4d65"><path d="M 17.332031 48 L 68.878906 48 L 68.878906 79 L 17.332031 79 Z M 17.332031 48" clip-rule="nonzero"/></clipPath><clipPath id="bb44462051"><path d="M 23 44.070312 L 63 44.070312 L 63 82.917969 L 23 82.917969 Z M 23 44.070312" clip-rule="nonzero"/></clipPath></defs><g clip-path="url(#ac674b4ce2)"><g clip-path="url(#48162a1213)"><path fill="url(#a1583161d3)" fill-rule="nonzero" d="M 7.035156 27.507812 L 7.035156 99.414062 L 78.941406 99.414062 L 78.941406 27.507812 Z M 7.035156 27.507812"/></g></g><g clip-path="url(#e7c67e4d65)"><path fill="#c13584" fill-opacity="1" fill-rule="nonzero" d="M 19.390625 63.503906 C 19.390625 62.570312 19.792969 61.699219 20.523438 61.042969 C 24.90625 57.109375 33.660156 50.511719 43.023438 50.511719 C 45.847656 50.511719 48.613281 51.113281 51.222656 52.058594 L 52.8125 50.464844 C 49.441406 49.132812 46.164062 48.460938 43.023438 48.460938 C 38.601562 48.460938 33.898438 49.796875 29.054688 52.429688 C 24.863281 54.707031 21.359375 57.542969 19.15625 59.515625 C 17.988281 60.566406 17.34375 61.980469 17.34375 63.503906 C 17.34375 65.023438 17.988281 66.4375 19.15625 67.488281 C 21.324219 69.429688 24.75 72.203125 28.847656 74.460938 L 30.363281 72.949219 C 26.253906 70.765625 22.800781 68.003906 20.523438 65.960938 C 19.792969 65.304688 19.390625 64.433594 19.390625 63.503906 Z M 68.238281 61.332031 C 67.933594 60.65625 67.476562 60.042969 66.894531 59.515625 C 64.726562 57.574219 61.300781 54.800781 57.203125 52.542969 L 55.6875 54.058594 C 55.839844 54.136719 55.992188 54.21875 56.144531 54.300781 C 60.050781 56.445312 63.335938 59.078125 65.527344 61.042969 C 66.257812 61.699219 66.660156 62.570312 66.660156 63.503906 C 66.660156 64.433594 66.257812 65.304688 65.527344 65.960938 C 61.144531 69.894531 52.390625 76.492188 43.023438 76.492188 C 40.203125 76.492188 37.4375 75.894531 34.828125 74.949219 L 33.238281 76.539062 C 36.609375 77.871094 39.886719 78.542969 43.023438 78.542969 C 47.449219 78.542969 52.148438 77.207031 56.996094 74.574219 C 61.1875 72.296875 64.691406 69.464844 66.894531 67.488281 C 68.0625 66.4375 68.707031 65.023438 68.707031 63.503906 C 68.707031 62.742188 68.546875 62.007812 68.238281 61.332031"/></g><path fill="#c13584" fill-opacity="1" fill-rule="nonzero" d="M 47.007812 56.277344 L 35.8125 67.492188 C 35.15625 66.308594 34.785156 64.949219 34.785156 63.503906 C 34.785156 58.945312 38.476562 55.253906 43.023438 55.253906 C 44.46875 55.253906 45.828125 55.625 47.007812 56.277344"/><path fill="#c13584" fill-opacity="1" fill-rule="nonzero" d="M 51.265625 63.503906 C 51.265625 68.058594 47.574219 71.753906 43.023438 71.753906 C 41.582031 71.753906 40.222656 71.378906 39.042969 70.726562 L 50.238281 59.515625 C 50.890625 60.695312 51.265625 62.054688 51.265625 63.503906"/><g clip-path="url(#bb44462051)"><path fill="#c13584" fill-opacity="1" fill-rule="nonzero" d="M 24.105469 82.449219 C 23.621094 81.964844 23.621094 81.175781 24.105469 80.691406 L 60.1875 44.558594 C 60.671875 44.070312 61.460938 44.070312 61.945312 44.558594 C 62.429688 45.042969 62.429688 45.828125 61.945312 46.316406 L 25.859375 82.449219 C 25.375 82.933594 24.589844 82.933594 24.105469 82.449219"/></g><g fill="#e1306c" fill-opacity="1"><g><g><path d="M 1.359375 -31.125 L 1.359375 -35.984375 L 8.328125 -35.984375 L 8.328125 -31.125 Z M 1.359375 0 L 1.359375 -29.171875 L 8.328125 -29.171875 L 8.328125 0 Z M 1.359375 0" transform="translate(82.288692, 79.189455)"/></g></g></g><g fill="#e1306c" fill-opacity="1"><g><g><path d="M 1.390625 -29.171875 L 8.375 -29.171875 L 8.375 -25.453125 C 8.664062 -26.648438 9.164062 -27.617188 9.875 -28.359375 C 10.59375 -29.109375 11.550781 -29.484375 12.75 -29.484375 C 14.71875 -29.484375 16.171875 -28.878906 17.109375 -27.671875 C 18.054688 -26.460938 18.53125 -24.742188 18.53125 -22.515625 L 18.53125 0 L 11.671875 0 L 11.671875 -21.796875 C 11.671875 -22.429688 11.546875 -22.972656 11.296875 -23.421875 C 11.046875 -23.878906 10.65625 -24.109375 10.125 -24.109375 C 9.40625 -24.109375 8.929688 -23.78125 8.703125 -23.125 C 8.484375 -22.476562 8.375 -21.609375 8.375 -20.515625 L 8.375 0 L 1.390625 0 Z M 1.390625 -29.171875" transform="translate(91.969759, 79.189455)"/></g></g></g><g fill="#e1306c" fill-opacity="1"><g><g><path d="M 9.40625 0.3125 C 3.632812 0.3125 0.75 -2.609375 0.75 -8.453125 L 0.796875 -10.765625 L 7.765625 -10.765625 L 7.8125 -7.328125 C 7.8125 -6.640625 7.941406 -6.113281 8.203125 -5.75 C 8.472656 -5.394531 8.910156 -5.21875 9.515625 -5.21875 C 10.453125 -5.21875 10.921875 -5.972656 10.921875 -7.484375 C 10.921875 -8.609375 10.703125 -9.488281 10.265625 -10.125 C 9.828125 -10.757812 9.128906 -11.4375 8.171875 -12.15625 L 4.46875 -15.015625 C 3.1875 -16.003906 2.265625 -17.019531 1.703125 -18.0625 C 1.148438 -19.113281 0.875 -20.597656 0.875 -22.515625 C 0.875 -24.003906 1.265625 -25.269531 2.046875 -26.3125 C 2.835938 -27.363281 3.878906 -28.15625 5.171875 -28.6875 C 6.472656 -29.21875 7.921875 -29.484375 9.515625 -29.484375 C 15.179688 -29.484375 18.015625 -26.664062 18.015625 -21.03125 L 18.015625 -20.484375 L 10.796875 -20.484375 L 10.796875 -21.59375 C 10.796875 -22.28125 10.679688 -22.867188 10.453125 -23.359375 C 10.234375 -23.859375 9.859375 -24.109375 9.328125 -24.109375 C 8.847656 -24.109375 8.476562 -23.96875 8.21875 -23.6875 C 7.96875 -23.40625 7.84375 -23.023438 7.84375 -22.546875 C 7.84375 -21.484375 8.253906 -20.660156 9.078125 -20.078125 L 13.390625 -16.9375 C 14.929688 -15.789062 16.113281 -14.546875 16.9375 -13.203125 C 17.757812 -11.867188 18.171875 -10.175781 18.171875 -8.125 C 18.171875 -5.414062 17.398438 -3.332031 15.859375 -1.875 C 14.316406 -0.414062 12.164062 0.3125 9.40625 0.3125 Z M 9.40625 0.3125" transform="translate(111.849813, 79.189455)"/></g></g></g><g fill="#e1306c" fill-opacity="1"><g><g><path d="M 6.6875 0.3125 C 4.4375 0.3125 2.890625 -0.4375 2.046875 -1.9375 C 1.210938 -3.4375 0.796875 -5.582031 0.796875 -8.375 C 0.796875 -10.65625 1.09375 -12.40625 1.6875 -13.625 C 2.289062 -14.84375 3.125 -15.738281 4.1875 -16.3125 C 5.25 -16.882812 6.867188 -17.515625 9.046875 -18.203125 L 10.953125 -18.84375 L 10.953125 -21.828125 C 10.953125 -22.597656 10.800781 -23.1875 10.5 -23.59375 C 10.195312 -24.007812 9.832031 -24.21875 9.40625 -24.21875 C 9.03125 -24.21875 8.703125 -24.046875 8.421875 -23.703125 C 8.148438 -23.359375 8.015625 -22.894531 8.015625 -22.3125 L 8.015625 -20.5625 L 1.234375 -20.5625 L 1.234375 -21.515625 C 1.234375 -24.378906 1.90625 -26.421875 3.25 -27.640625 C 4.59375 -28.867188 6.773438 -29.484375 9.796875 -29.484375 C 12.210938 -29.484375 14.175781 -28.851562 15.6875 -27.59375 C 17.207031 -26.332031 17.96875 -24.546875 17.96875 -22.234375 L 17.96875 0 L 11.03125 0 L 11.03125 -3.46875 C 10.6875 -2.269531 10.132812 -1.335938 9.375 -0.671875 C 8.625 -0.015625 7.726562 0.3125 6.6875 0.3125 Z M 9.4375 -5.09375 C 9.96875 -5.09375 10.347656 -5.3125 10.578125 -5.75 C 10.804688 -6.195312 10.921875 -6.738281 10.921875 -7.375 L 10.921875 -15.5 C 9.878906 -15.101562 9.113281 -14.597656 8.625 -13.984375 C 8.132812 -13.367188 7.890625 -12.519531 7.890625 -11.4375 L 7.890625 -7.6875 C 7.890625 -5.957031 8.40625 -5.09375 9.4375 -5.09375 Z M 9.4375 -5.09375" transform="translate(130.773709, 79.189455)"/></g></g></g><g fill="#e1306c" fill-opacity="1"><g><g><path d="M 1.390625 -29.171875 L 8.375 -29.171875 L 8.375 -25.453125 C 8.664062 -26.648438 9.164062 -27.617188 9.875 -28.359375 C 10.59375 -29.109375 11.550781 -29.484375 12.75 -29.484375 C 14.71875 -29.484375 16.171875 -28.878906 17.109375 -27.671875 C 18.054688 -26.460938 18.53125 -24.742188 18.53125 -22.515625 L 18.53125 0 L 11.671875 0 L 11.671875 -21.796875 C 11.671875 -22.429688 11.546875 -22.972656 11.296875 -23.421875 C 11.046875 -23.878906 10.65625 -24.109375 10.125 -24.109375 C 9.40625 -24.109375 8.929688 -23.78125 8.703125 -23.125 C 8.484375 -22.476562 8.375 -21.609375 8.375 -20.515625 L 8.375 0 L 1.390625 0 Z M 1.390625 -29.171875" transform="translate(150.016331, 79.189455)"/></g></g></g><g fill="#e1306c" fill-opacity="1"><g><g><path d="M 9.875 0.3125 C 4.0625 0.3125 1.15625 -2.695312 1.15625 -8.71875 L 1.15625 -20.4375 C 1.15625 -23.195312 1.929688 -25.394531 3.484375 -27.03125 C 5.035156 -28.664062 7.164062 -29.484375 9.875 -29.484375 C 12.59375 -29.484375 14.726562 -28.664062 16.28125 -27.03125 C 17.832031 -25.394531 18.609375 -23.195312 18.609375 -20.4375 L 18.609375 -8.71875 C 18.609375 -2.695312 15.695312 0.3125 9.875 0.3125 Z M 9.875 -5.0625 C 10.4375 -5.0625 10.847656 -5.257812 11.109375 -5.65625 C 11.378906 -6.050781 11.515625 -6.597656 11.515625 -7.296875 L 11.515625 -21.5625 C 11.515625 -23.257812 10.96875 -24.109375 9.875 -24.109375 C 8.789062 -24.109375 8.25 -23.257812 8.25 -21.5625 L 8.25 -7.296875 C 8.25 -6.597656 8.378906 -6.050781 8.640625 -5.65625 C 8.910156 -5.257812 9.320312 -5.0625 9.875 -5.0625 Z M 9.875 -5.0625" transform="translate(169.896385, 79.189455)"/></g></g></g><g fill="#e1306c" fill-opacity="1"><g><g><path d="M 1.390625 -29.171875 L 8.375 -29.171875 L 8.375 -25.453125 C 8.664062 -26.648438 9.164062 -27.617188 9.875 -28.359375 C 10.59375 -29.109375 11.550781 -29.484375 12.75 -29.484375 C 14.71875 -29.484375 16.171875 -28.878906 17.109375 -27.671875 C 18.054688 -26.460938 18.53125 -24.742188 18.53125 -22.515625 L 18.53125 0 L 11.671875 0 L 11.671875 -21.796875 C 11.671875 -22.429688 11.546875 -22.972656 11.296875 -23.421875 C 11.046875 -23.878906 10.65625 -24.109375 10.125 -24.109375 C 9.40625 -24.109375 8.929688 -23.78125 8.703125 -23.125 C 8.484375 -22.476562 8.375 -21.609375 8.375 -20.515625 L 8.375 0 L 1.390625 0 Z M 1.390625 -29.171875" transform="translate(189.696757, 79.189455)"/></g></g></g><g fill="#e1306c" fill-opacity="1"><g><g><path d="M 0.84375 0.4375 L 4.1875 0.4375 C 4.664062 0.4375 4.90625 0.238281 4.90625 -0.15625 C 4.90625 -0.34375 4.890625 -0.488281 4.859375 -0.59375 L 0.3125 -29.171875 L 6.96875 -29.171875 L 8.28125 -14.9375 L 8.921875 -7.6875 L 9.6875 -14.9375 L 11.234375 -29.171875 L 17.9375 -29.171875 L 12.515625 1.515625 C 12.328125 2.660156 11.945312 3.503906 11.375 4.046875 C 10.800781 4.585938 9.90625 4.859375 8.6875 4.859375 L 0.84375 4.859375 Z M 0.84375 0.4375" transform="translate(209.57681, 79.189455)"/></g></g></g><g fill="#e1306c" fill-opacity="1"><g><g><path d="M 1.078125 0 L 1.078125 -5.8125 L 8.046875 -5.8125 L 8.046875 0 Z M 1.078125 0" transform="translate(227.942957, 79.189455)"/></g></g></g><g fill="#e1306c" fill-opacity="1"><g><g><path d="M 1.359375 -31.125 L 1.359375 -35.984375 L 8.328125 -35.984375 L 8.328125 -31.125 Z M 1.359375 0 L 1.359375 -29.171875 L 8.328125 -29.171875 L 8.328125 0 Z M 1.359375 0" transform="translate(237.066275, 79.189455)"/></g></g></g><g fill="#e1306c" fill-opacity="1"><g><g><path d="M 9.875 0.3125 C 4.0625 0.3125 1.15625 -2.695312 1.15625 -8.71875 L 1.15625 -20.4375 C 1.15625 -23.195312 1.929688 -25.394531 3.484375 -27.03125 C 5.035156 -28.664062 7.164062 -29.484375 9.875 -29.484375 C 12.59375 -29.484375 14.726562 -28.664062 16.28125 -27.03125 C 17.832031 -25.394531 18.609375 -23.195312 18.609375 -20.4375 L 18.609375 -8.71875 C 18.609375 -2.695312 15.695312 0.3125 9.875 0.3125 Z M 9.875 -5.0625 C 10.4375 -5.0625 10.847656 -5.257812 11.109375 -5.65625 C 11.378906 -6.050781 11.515625 -6.597656 11.515625 -7.296875 L 11.515625 -21.5625 C 11.515625 -23.257812 10.96875 -24.109375 9.875 -24.109375 C 8.789062 -24.109375 8.25 -23.257812 8.25 -21.5625 L 8.25 -7.296875 C 8.25 -6.597656 8.378906 -6.050781 8.640625 -5.65625 C 8.910156 -5.257812 9.320312 -5.0625 9.875 -5.0625 Z M 9.875 -5.0625" transform="translate(246.747342, 79.189455)"/></g></g></g></svg>